<svg xmlns="http://www.w3.org/2000/svg" xmlns:xlink="http://www.w3.org/1999/xlink" width="325" height="248" viewBox="0 0 325 248">
  <defs>
    <clipPath id="clip-path">
      <rect id="Rectangle_13494" data-name="Rectangle 13494" width="45.183" height="31.221" transform="translate(0 0)" fill="none"/>
    </clipPath>
    <clipPath id="clip-Remote_Proctoring_Solution">
      <rect width="325" height="248"/>
    </clipPath>
  </defs>
  <g id="Remote_Proctoring_Solution" data-name="Remote Proctoring Solution" clip-path="url(#clip-Remote_Proctoring_Solution)">
    <path id="Path_50136" data-name="Path 50136" d="M739.439,433s-.12-6.46.11-7.53,2.83,3.85,2.83,3.85,5.38-5.5,4.36-7.66.05-4.87,1.13-3.17a10.379,10.379,0,0,1,.8,7.65c-.79,2.66-8.33,11.4-8.33,11.4l-2.83-2.38Z" transform="translate(-656.543 -336.83)" fill="#e48c80"/>
    <path id="Path_50137" data-name="Path 50137" d="M738.16,428.4l-2.93-1.89c-.2-.14,0-.81.43-1.33l8.83-11.05c.25-.31.5-.47.63-.39l2.81,1.82c.2.13,0,.79-.41,1.31L738.82,428C738.57,428.32,738.31,428.48,738.16,428.4Z" transform="translate(-653.134 -336.83)" fill="#d5d9e0"/>
    <path id="Path_50138" data-name="Path 50138" d="M737.974,427.53l-2.92-1.9c-.21-.13,0-.8.42-1.32l8.83-11.05c.26-.31.51-.47.63-.39l2.81,1.82c.2.13,0,.79-.41,1.31l-8.71,11.12C738.364,427.45,738.1,427.61,737.974,427.53Z" transform="translate(-652.769 -336.83)" fill="#00ac41" stroke="#003865" stroke-miterlimit="10" stroke-width="0.29"/>
    <rect id="Rectangle_13418" data-name="Rectangle 13418" width="2.81" height="0.41" transform="translate(93.188 79.942) rotate(-148.62)" fill="#fff"/>
    <rect id="Rectangle_13419" data-name="Rectangle 13419" width="3.06" height="0.41" transform="translate(90.874 83.317) rotate(-148.62)" fill="#fff"/>
    <rect id="Rectangle_13420" data-name="Rectangle 13420" width="3.33" height="0.41" transform="translate(88.445 86.609) rotate(-148.62)" fill="#fff"/>
    <path id="Path_50139" data-name="Path 50139" d="M739.73,428.89s2.23-6.06,2.83-7,1.25,4.61,1.25,4.61,7-3.18,6.83-5.56,1.82-4.52,2.21-2.55a10.38,10.38,0,0,1-2,7.42c-1.7,2.2-11.88,7.62-11.88,7.62l-1.78-3.24Z" transform="translate(-660.084 -336.83)" fill="#e48c80"/>
    <rect id="Rectangle_13462" data-name="Rectangle 13462" width="7.69" height="115.81" transform="translate(53.896 128.77)" fill="#003865"/>
    <path id="Path_50140" data-name="Path 50140" d="M754.314,429.3h29.23a27.17,27.17,0,0,1,25.531,17.871l16.409,45.089a6.69,6.69,0,0,1-6.28,9l-50.14,2.33-21-65.29a6.68,6.68,0,0,1,6.25-9Z" transform="translate(-743.519 -336.83)" fill="#d5d9e0"/>
    <path id="Path_50162" data-name="Path 50162" d="M702.17,505.89h100.21a2.21,2.21,0,0,0,2.09-2.33h0a2.21,2.21,0,0,0-2.09-2.33H702.17a2.22,2.22,0,0,0-2.09,2.33h0A2.22,2.22,0,0,0,702.17,505.89Z" transform="translate(-674.523 -336.83)" fill="#d5d9e0"/>
    <path id="Path_50163" data-name="Path 50163" d="M757.03,505.89h45.14a2.33,2.33,0,0,0,2.34-2.33h0a2.33,2.33,0,0,0-2.34-2.33H756.99a2.33,2.33,0,0,0-2.33,2.33h0a2.33,2.33,0,0,0,2.37,2.33Z" transform="translate(-729.145 -336.83)" fill="#d5d9e0"/>
    <path id="Path_50133" data-name="Path 50133" d="M796.861,379.6s-11.09-13.06-18.48-5.67-9.25,11.95-7.48,15,13.27,16.25,18.08,15.2S799.481,388.51,796.861,379.6Z" transform="translate(-737.775 -336.83)" fill="#e48c80"/>
    <path id="Path_50141" data-name="Path 50141" d="M798.08,410.95l-10.62-2.85,8.32-19.91,5.65,2.3Z" transform="translate(-758.864 -336.83)" fill="#e48c80"/>
    <path id="Path_50134" data-name="Path 50134" d="M775.63,369.88c-2,2.26-3.56,6.29-4.7,9.09a15.141,15.141,0,0,0-1.28,7.19,8.13,8.13,0,0,0,3.58,6.15,5.66,5.66,0,0,0,6.81-.61,11.7,11.7,0,0,1-1.68-4.47,4,4,0,0,1,2-4.05c2.53-1.18,3.15,1.38,5.07,1.62,1.37.17,2.57-1.56,3.91-2.29,3.22-1.77,7.09-2.11,10.7-2.27,1,0,2.27-.31,2.41-1.3a2,2,0,0,0-.23-1.08c-2.15-4.91-7.18-9.36-12.42-10.47-7.68-1.61-9.59-.64-9.59-.64a7,7,0,0,0-2.57,1.13,6.72,6.72,0,0,0-2.01,2Z" transform="translate(-742.044 -336.83)" fill="#003865"/>
    <path id="Path_50142" data-name="Path 50142" d="M744.214,429.83s1.8,4.62,13.27,12.8,15.23,10.89,19.56,10.65c2.67-.15,21.73-15.68,21.73-15.68l-4.37-5.37-18.44,11.62s-10.6-8.68-18.06-13.47c-2.58-1.65-8.6-6.5-12.2-5.5S744.214,429.83,744.214,429.83Z" transform="translate(-712.349 -336.83)" fill="#119990"/>
    <path id="Path_50203" data-name="Path 50203" d="M712.07,571.99h5.28l.69-8.4-6.45-.69Z" transform="translate(-599.604 -336.83)" fill="#e48c80"/>
    <path id="Path_50209" data-name="Path 50209" d="M698.363,572s-2,2.18-1.31,7c.31,2.29,4.94,2.14,12.76,2.14h7.79a1.54,1.54,0,0,0,.89-2.69,5.69,5.69,0,0,0-2.07-1.15c-8.8-2.94-12.78-5.32-12.78-5.32Z" transform="translate(-585.897 -336.83)" fill="#003865"/>
    <path id="Path_50152" data-name="Path 50152" d="M701.448,466.46c.05,2.9-6.13,12.72-4.9,22.3.8,6.28,5.8,12.48,17.49,12.48,15.95,0,41.36-.18,45.52,0,3.3.15,4.87.23,2.93,6.92-4.57,15.87-2.77,20.64-1.56,57.2h16.25s1.74-15.79,4.3-34.14c4-28.56,7.26-39.68-4.28-45.6-12.2-6.26-55.92-19.16-55.92-19.16Z" transform="translate(-651.532 -336.83)" fill="#d5d9e0"/>
    <path id="Path_50204" data-name="Path 50204" d="M727.1,571.99h5.28l.69-8.4-6.44-.69Z" transform="translate(-629.674 -336.83)" fill="#e48c80"/>
    <path id="Path_50210" data-name="Path 50210" d="M713.368,572s-1.94,2.18-1.3,7c.31,2.29,4.94,2.14,12.76,2.14h7.78a1.54,1.54,0,0,0,.9-2.69,5.689,5.689,0,0,0-2.07-1.15c-8.8-2.94-12.79-5.32-12.79-5.32Z" transform="translate(-615.942 -336.83)" fill="#003865"/>
    <path id="Path_50153" data-name="Path 50153" d="M715.128,466.46c0,2.9-6.12,12.72-4.9,22.3.8,6.28,5.81,12.48,17.49,12.48h45.53c3.3,0,4.86.23,2.93,6.92-4.58,15.87-6.66,21-4.37,57.2h13.18a109.261,109.261,0,0,0,10.65-33.22c4-28.56,6.78-40.6-4.75-46.52-12.2-6.26-55.18-19.16-55.18-19.16Z" transform="translate(-679.152 -336.83)" fill="#b9bfc7"/>
    <g id="Group_58079" data-name="Group 58079" transform="translate(30.915 129.63)" opacity="0.25" style="mix-blend-mode: multiply;isolation: isolate">
      <path id="Path_50071" data-name="Path 50071" d="M715.128,466.46c0,2.9-6.12,12.72-4.9,22.3.8,6.28,5.81,12.48,17.49,12.48h45.53c3.3,0,4.86.23,2.93,6.92-4.58,15.87-6.66,21-4.37,57.2h13.18a109.261,109.261,0,0,0,10.65-33.22c4-28.56,6.78-40.6-4.75-46.52-12.2-6.26-55.18-19.16-55.18-19.16Z" transform="translate(-710.067 -466.46)" fill="#b9bfc7"/>
    </g>
    <path id="Path_50143" data-name="Path 50143" d="M756.7,404.05l5-.74a4.05,4.05,0,0,1,4.23,2.21c3.59,7.24,4.78,7.26,7.82,12.73,5.9,10.66,29.09,48.42,29.29,50.52.16,1.7-27.08,19.83-44.7,13.61-2.42-.85-4.95-1-5.16-3.58-1.06-12.86-3.43-48.15.1-71.36a4.05,4.05,0,0,1,3.42-3.39Z" transform="translate(-724.419 -336.83)" fill="#119990"/>
    <path id="Path_50144" data-name="Path 50144" d="M785.6,413.98l14.96-.81,1.37-9.86-15.19-1.13Z" transform="translate(-757.504 -336.83)" fill="#119990"/>
    <path id="Path_50135" data-name="Path 50135" d="M793.368,369.15s8.37-9.08,5.7-13.71-6.95,1.07-6.95,1.07,1.07-5.87-2-5.7-4.63,5.7-4.63,5.7-.89-6.59-3.38-4.63-6.06,19.23,3.38,17.62C793.708,368.12,793.368,369.15,793.368,369.15Z" transform="translate(-748.893 -336.83)" fill="#003865"/>
    <path id="Path_50145" data-name="Path 50145" d="M631.3,459.79h71.4L721.9,422a1.43,1.43,0,0,0-1.28-2.08h-67.14a3.13,3.13,0,0,0-2.79,1.711Z" transform="translate(-523.338 -336.83)" fill="#009de0"/>
    <path id="Path_50154" data-name="Path 50154" d="M754.54,455h-34.7a2.44,2.44,0,0,0-2.44,2.44v2.33h37.14Z" transform="translate(-641.914 -336.83)" fill="#009de0"/>
    <ellipse id="Ellipse_1546" data-name="Ellipse 1546" cx="3.69" cy="3.69" rx="3.69" ry="3.69" transform="translate(149.815 99.68)" fill="#d5d9e0"/>
    <rect id="Rectangle_13482" data-name="Rectangle 13482" width="5.97" height="72.71" transform="translate(60.735 167.31)" fill="#d5d9e0"/>
    <path id="Path_50146" data-name="Path 50146" d="M747.55,409.76a73.71,73.71,0,0,0,4.67,20.58c4.26,11.21,7.69,23.2,12.71,23.57s36.25-19.74,36.25-19.74l-4.54-7.44-29,13.14s-4.59-18.69-5.55-22-6-11.82-10.25-10.92S747.55,409.76,747.55,409.76Z" transform="translate(-718.704 -336.83)" fill="#119990"/>
    <rect id="Rectangle_13503" data-name="Rectangle 13503" width="20.52" height="5.47" transform="translate(53.396 239.51)" fill="#d5d9e0"/>
    <path id="Path_50155" data-name="Path 50155" d="M667.64,417.57l-1,1.92m-1,.15h2" transform="translate(-503.254 -336.83)" fill="none" stroke="#003865" stroke-linecap="round" stroke-linejoin="round" stroke-width="0.57"/>
    <ellipse id="Ellipse_1547" data-name="Ellipse 1547" cx="1.31" cy="3.71" rx="1.31" ry="3.71" transform="translate(165.703 81.21) rotate(-154.98)" fill="none" stroke="#003865" stroke-linecap="round" stroke-linejoin="round" stroke-width="0.57"/>
    <ellipse id="Ellipse_1548" data-name="Ellipse 1548" cx="0.852" cy="2.415" rx="0.852" ry="2.415" transform="translate(164.51 83.38) rotate(-155.225)" fill="#003865"/>
    <ellipse id="Ellipse_1549" data-name="Ellipse 1549" cx="0.16" cy="0.45" rx="0.16" ry="0.45" transform="translate(166.039 77.769) rotate(-154.98)" fill="#fff"/>
    <path id="Path_50156" data-name="Path 50156" d="M825.1,459.88v5.72h-3.75V581.41h-7.68V465.6h-40.8V581.41h-7.68V465.6H588.22V581.38h-7.68V465.6h-3.33v-5.72Z" transform="translate(-572.284 -336.83)" fill="#003865"/>
    <g id="Group_58077" data-name="Group 58077" transform="translate(28.846 70.054)" opacity="0.24" style="mix-blend-mode: multiply;isolation: isolate">
      <path id="Path_50080" data-name="Path 50080" d="M747.55,409.76a73.71,73.71,0,0,0,4.67,20.58c4.26,11.21,7.69,23.2,12.71,23.57s36.25-19.74,36.25-19.74l-4.54-7.44-29,13.14s-4.59-18.69-5.55-22-6-11.82-10.25-10.92S747.55,409.76,747.55,409.76Z" transform="translate(-747.55 -406.884)" fill="#119990"/>
    </g>
    <path id="Path_50157" data-name="Path 50157" d="M756.86,505.89h56V485.23a11.16,11.16,0,0,0-11.09-11.16l-55.39-5.6Z" transform="translate(-729.214 -336.83)" fill="#d5d9e0"/>
    <path id="Path_50147" data-name="Path 50147" d="M672.16,394.2a4.19,4.19,0,0,0,4.45,3.86H760a4.19,4.19,0,0,0,4.45-3.86v-50H672.16Z" transform="translate(-607.064 -336.83)" fill="#d5d9e0" opacity="0.2"/>
    <path id="Path_50148" data-name="Path 50148" d="M760.22,340H677.37c-2.6,0-4.71,1.83-4.71,4.08v.91h92.27V344C764.93,341.78,762.82,340,760.22,340Z" transform="translate(-607.064 -336.83)" fill="#fff"/>
    <path id="Path_50149" data-name="Path 50149" d="M759.77,339.85H676.92c-2.6,0-4.71,1.83-4.71,4.09v.9h92.27v-.9C764.48,341.68,762.37,339.85,759.77,339.85Z" transform="translate(-607.064 -336.83)" fill="#d5d9e0" opacity="0.54"/>
    <circle id="Ellipse_1544" data-name="Ellipse 1544" cx="5.21" cy="5.21" r="5.21" transform="translate(74.195 12.6)" fill="#009de0"/>
    <ellipse id="Ellipse_1545" data-name="Ellipse 1545" cx="1.47" cy="1.47" rx="1.47" ry="1.47" transform="translate(77.936 15)" fill="#fff"/>
    <path id="Path_50150" data-name="Path 50150" d="M684.22,357a2.25,2.25,0,0,1,4.49,0" transform="translate(-607.064 -336.83)" fill="#fff"/>
    <rect id="Rectangle_13421" data-name="Rectangle 13421" width="13.64" height="0.5" transform="translate(72.586 24.69)" fill="#d5d9e0" opacity="0.54"/>
    <rect id="Rectangle_13422" data-name="Rectangle 13422" width="50.62" height="1.1" transform="translate(100.616 13.45)" fill="#d5d9e0" opacity="0.54"/>
    <rect id="Rectangle_13423" data-name="Rectangle 13423" width="50.62" height="1.1" transform="translate(71.646 5.06)" fill="#d5d9e0" opacity="0.54"/>
    <rect id="Rectangle_13424" data-name="Rectangle 13424" width="43.83" height="1.1" transform="translate(100.616 16.33)" fill="#d5d9e0" opacity="0.54"/>
    <rect id="Rectangle_13425" data-name="Rectangle 13425" width="28.79" height="1.1" transform="translate(100.616 19.21)" fill="#d5d9e0" opacity="0.54"/>
    <rect id="Rectangle_13426" data-name="Rectangle 13426" width="9.26" height="0.5" transform="translate(74.766 26.23)" fill="#d5d9e0" opacity="0.54"/>
    <rect id="Rectangle_13427" data-name="Rectangle 13427" width="0.16" height="49.55" transform="translate(94.786 9.48)" fill="#d5d9e0" opacity="0.54"/>
    <rect id="Rectangle_13428" data-name="Rectangle 13428" width="3.26" height="3.26" transform="translate(70.775 33.7)" fill="#00ac41"/>
    <rect id="Rectangle_13429" data-name="Rectangle 13429" width="32.47" height="1.1" transform="translate(108.226 24.94)" fill="#d5d9e0" opacity="0.54"/>
    <rect id="Rectangle_13430" data-name="Rectangle 13430" width="21.32" height="1.1" transform="translate(108.226 27.82)" fill="#d5d9e0" opacity="0.54"/>
    <rect id="Rectangle_13431" data-name="Rectangle 13431" width="4.24" height="4.24" transform="translate(100.546 24.9)" fill="#d5d9e0"/>
    <rect id="Rectangle_13432" data-name="Rectangle 13432" width="32.47" height="1.1" transform="translate(108.226 32.61)" fill="#d5d9e0" opacity="0.54"/>
    <rect id="Rectangle_13433" data-name="Rectangle 13433" width="21.32" height="1.1" transform="translate(108.226 35.49)" fill="#d5d9e0" opacity="0.54"/>
    <rect id="Rectangle_13434" data-name="Rectangle 13434" width="4.24" height="4.24" transform="translate(100.546 32.57)" fill="#00ac41"/>
    <rect id="Rectangle_13435" data-name="Rectangle 13435" width="32.47" height="1.1" transform="translate(108.226 40.28)" fill="#d5d9e0" opacity="0.54"/>
    <rect id="Rectangle_13436" data-name="Rectangle 13436" width="21.32" height="1.1" transform="translate(108.226 43.16)" fill="#d5d9e0" opacity="0.54"/>
    <rect id="Rectangle_13437" data-name="Rectangle 13437" width="4.24" height="4.24" transform="translate(100.546 40.25)" fill="#d5d9e0"/>
    <rect id="Rectangle_13438" data-name="Rectangle 13438" width="32.47" height="1.1" transform="translate(108.226 47.96)" fill="#d5d9e0" opacity="0.54"/>
    <rect id="Rectangle_13439" data-name="Rectangle 13439" width="21.32" height="1.1" transform="translate(108.226 50.83)" fill="#d5d9e0" opacity="0.54"/>
    <rect id="Rectangle_13440" data-name="Rectangle 13440" width="4.24" height="4.24" transform="translate(100.546 47.92)" fill="#d5d9e0"/>
    <rect id="Rectangle_13441" data-name="Rectangle 13441" width="3.26" height="3.26" transform="translate(74.876 33.7)" fill="#00ac41"/>
    <rect id="Rectangle_13442" data-name="Rectangle 13442" width="3.26" height="3.26" transform="translate(78.985 33.7)" fill="#00ac41"/>
    <rect id="Rectangle_13443" data-name="Rectangle 13443" width="3.26" height="3.26" transform="translate(83.086 33.7)" fill="#d5d9e0"/>
    <rect id="Rectangle_13444" data-name="Rectangle 13444" width="3.26" height="3.26" transform="translate(87.195 33.7)" fill="#d5d9e0"/>
    <rect id="Rectangle_13445" data-name="Rectangle 13445" width="3.26" height="3.26" transform="translate(70.775 37.8)" fill="#d5d9e0"/>
    <rect id="Rectangle_13446" data-name="Rectangle 13446" width="3.26" height="3.26" transform="translate(74.876 37.8)" fill="#d5d9e0"/>
    <rect id="Rectangle_13447" data-name="Rectangle 13447" width="3.26" height="3.26" transform="translate(78.985 37.8)" fill="#d5d9e0"/>
    <rect id="Rectangle_13448" data-name="Rectangle 13448" width="3.26" height="3.26" transform="translate(83.086 37.8)" fill="#00ac41"/>
    <rect id="Rectangle_13449" data-name="Rectangle 13449" width="3.26" height="3.26" transform="translate(87.195 37.8)" fill="#d5d9e0"/>
    <rect id="Rectangle_13450" data-name="Rectangle 13450" width="3.26" height="3.26" transform="translate(70.775 41.76)" fill="#d5d9e0"/>
    <rect id="Rectangle_13451" data-name="Rectangle 13451" width="3.26" height="3.26" transform="translate(74.876 41.76)" fill="#d5d9e0"/>
    <rect id="Rectangle_13452" data-name="Rectangle 13452" width="3.26" height="3.26" transform="translate(78.985 41.76)" fill="#00ac41"/>
    <rect id="Rectangle_13453" data-name="Rectangle 13453" width="3.26" height="3.26" transform="translate(83.086 41.76)" fill="#d5d9e0"/>
    <rect id="Rectangle_13454" data-name="Rectangle 13454" width="3.26" height="3.26" transform="translate(87.195 41.76)" fill="#d5d9e0"/>
    <rect id="Rectangle_13455" data-name="Rectangle 13455" width="3.26" height="3.26" transform="translate(70.775 45.72)" fill="#00ac41"/>
    <rect id="Rectangle_13456" data-name="Rectangle 13456" width="3.26" height="3.26" transform="translate(74.876 45.72)" fill="#d5d9e0"/>
    <rect id="Rectangle_13457" data-name="Rectangle 13457" width="3.26" height="3.26" transform="translate(78.985 45.72)" fill="#d5d9e0"/>
    <rect id="Rectangle_13458" data-name="Rectangle 13458" width="3.26" height="3.26" transform="translate(83.086 45.72)" fill="#d5d9e0"/>
    <rect id="Rectangle_13459" data-name="Rectangle 13459" width="3.26" height="3.26" transform="translate(87.195 45.72)" fill="#e10600"/>
    <rect id="Rectangle_13460" data-name="Rectangle 13460" width="14.88" height="3.32" transform="translate(73.285 53.22)" fill="#868d95"/>
    <rect id="Rectangle_13461" data-name="Rectangle 13461" width="10.01" height="0.74" transform="translate(75.516 54.54)" fill="#d5d9e0"/>
    <path id="Path_50151" data-name="Path 50151" d="M710.62,372.9l.35,1.61a.07.07,0,0,0,.06,0h.05l.23-.79h.82v-.05a.11.11,0,0,0,0-.05h0l-1.45-.77h-.06A.078.078,0,0,0,710.62,372.9Z" transform="translate(-607.064 -336.83)" fill="#003865"/>
    <rect id="Rectangle_13463" data-name="Rectangle 13463" width="2.44" height="2.44" transform="translate(143.815 4.33)" fill="#d5d9e0"/>
    <rect id="Rectangle_13464" data-name="Rectangle 13464" width="2.44" height="2.44" transform="translate(147.525 4.33)" fill="#d5d9e0"/>
    <rect id="Rectangle_13465" data-name="Rectangle 13465" width="2.44" height="2.44" transform="translate(151.235 4.33)" fill="#d5d9e0"/>
    <rect id="Rectangle_13466" data-name="Rectangle 13466" width="0.21" height="0.21" transform="translate(146.767 5.1)" fill="#d5d9e0"/>
    <rect id="Rectangle_13467" data-name="Rectangle 13467" width="0.21" height="0.21" transform="translate(146.767 5.78)" fill="#d5d9e0"/>
    <rect id="Rectangle_13468" data-name="Rectangle 13468" width="0.21" height="0.21" transform="translate(150.387 5.1)" fill="#d5d9e0"/>
    <rect id="Rectangle_13469" data-name="Rectangle 13469" width="0.21" height="0.21" transform="translate(150.387 5.78)" fill="#d5d9e0"/>
    <g id="Group_58078" data-name="Group 58078" transform="translate(116.734 66.468)" opacity="0.31">
      <path id="Path_50102" data-name="Path 50102" d="M703.222,403.45l9.92,10.36a.5.5,0,0,1-.51.83l-6.8-2.19-4,5.91a.5.5,0,0,1-.59.19.49.49,0,0,1-.3-.31.51.51,0,0,1,0-.21l1.44-14.28a.51.51,0,0,1,.87-.3Z" transform="translate(-700.931 -403.298)" fill="#d5d9e0"/>
    </g>
    <path id="Path_50158" data-name="Path 50158" d="M299,357.2a4.134,4.134,0,0,0,4.393,3.81h82.265a4.138,4.138,0,0,0,4.4-3.81V307.9H299Z" transform="translate(-136.614 -299.812)" fill="#d5d9e0" opacity="0.31"/>
    <path id="Path_50159" data-name="Path 50159" d="M385.425,295.92H303.677c-2.566,0-4.647,1.8-4.647,4.027v.891h91.042v-.891C390.072,297.722,387.991,295.92,385.425,295.92Z" transform="translate(-136.632 -292.75)" fill="#fff"/>
    <path id="Path_50160" data-name="Path 50160" d="M385.425,295.92H303.677c-2.566,0-4.647,1.8-4.647,4.027v.891h91.042v-.891C390.072,297.722,387.991,295.92,385.425,295.92Z" transform="translate(-136.632 -292.75)" fill="#d5d9e0" opacity="0.54"/>
    <ellipse id="Ellipse_1550" data-name="Ellipse 1550" cx="0.809" cy="0.809" rx="0.809" ry="0.809" transform="translate(165.867 5.149)" fill="#00ac41"/>
    <ellipse id="Ellipse_1551" data-name="Ellipse 1551" cx="0.809" cy="0.809" rx="0.809" ry="0.809" transform="translate(169.139 5.149)" fill="#199cd8"/>
    <ellipse id="Ellipse_1552" data-name="Ellipse 1552" cx="0.809" cy="0.809" rx="0.809" ry="0.809" transform="translate(172.415 5.149)" fill="#868d95"/>
    <rect id="Rectangle_13483" data-name="Rectangle 13483" width="8.169" height="3.063" transform="translate(205.569 9.993)" fill="#d5d9e0" opacity="0.54"/>
    <path id="Path_50199" data-name="Path 50199" d="M504.507,416.43l3.678,1.9L504.47,421Z" transform="translate(-257.733 -363.787)" fill="#e10600"/>
    <line id="Line_685" data-name="Line 685" y1="5.871" transform="translate(246.946 52.503)" fill="none" stroke="#e10600" stroke-linecap="round" stroke-miterlimit="10" stroke-width="1"/>
    <rect id="Rectangle_13496" data-name="Rectangle 13496" width="13.371" height="0.64" transform="translate(228.842 52.897)" fill="#fff"/>
    <rect id="Rectangle_13497" data-name="Rectangle 13497" width="14.828" height="0.64" transform="translate(228.842 54.33)" fill="#fff"/>
    <rect id="Rectangle_13498" data-name="Rectangle 13498" width="9.389" height="0.64" transform="translate(228.842 55.759)" fill="#fff"/>
    <path id="Path_50161" data-name="Path 50161" d="M340.965,361.11H303.049a3.748,3.748,0,0,1-3.728-3.765L299.26,308H340.9Z" transform="translate(-136.768 -299.871)" fill="#76d3ff"/>
    <rect id="Rectangle_13470" data-name="Rectangle 13470" width="41.64" height="6.38" transform="translate(162.492 8.117)" fill="#fff" opacity="0.5"/>
    <rect id="Rectangle_13471" data-name="Rectangle 13471" width="31.147" height="0.751" transform="translate(167.735 10.929)" fill="#fff"/>
    <path id="Path_50164" data-name="Path 50164" d="M382.817,335.423l-2.956,2.956a.205.205,0,0,1-.287,0l-1.8-1.81a.205.205,0,0,1,0-.287l.431-.411a.205.205,0,0,1,.287,0l1.232,1.232,2.381-2.381a.2.2,0,0,1,.287,0l.431.41a.205.205,0,0,1-.008.291Z" transform="translate(-183.016 -315.585)" fill="#00ac41"/>
    <path id="Path_50165" data-name="Path 50165" d="M382.817,393.848l-2.956,2.956a.205.205,0,0,1-.287,0l-1.8-1.81a.205.205,0,0,1,0-.287l.431-.411a.205.205,0,0,1,.287,0l1.232,1.232,2.381-2.381a.205.205,0,0,1,.287,0l.431.431A.205.205,0,0,1,382.817,393.848Z" transform="translate(-183.016 -350.027)" fill="#00ac41"/>
    <path id="Path_50166" data-name="Path 50166" d="M382.817,414.708l-2.956,2.956a.205.205,0,0,1-.287,0l-1.8-1.81a.205.205,0,0,1,0-.287l.431-.411a.2.2,0,0,1,.287,0l1.232,1.232,2.381-2.381a.205.205,0,0,1,.287,0l.431.431A.205.205,0,0,1,382.817,414.708Z" transform="translate(-183.016 -362.324)" fill="#00ac41"/>
    <rect id="Rectangle_13472" data-name="Rectangle 13472" width="3.567" height="3.567" rx="1.784" transform="translate(167.443 19.468)" fill="#fff"/>
    <rect id="Rectangle_13473" data-name="Rectangle 13473" width="14.652" height="1.063" rx="0.532" transform="translate(173.413 20.835)" fill="#fff"/>
    <rect id="Rectangle_13474" data-name="Rectangle 13474" width="3.567" height="3.567" rx="1.784" transform="translate(167.443 27.018)" fill="#fff"/>
    <rect id="Rectangle_13475" data-name="Rectangle 13475" width="14.652" height="1.063" rx="0.532" transform="translate(173.413 28.385)" fill="#fff"/>
    <rect id="Rectangle_13476" data-name="Rectangle 13476" width="3.567" height="3.567" rx="1.784" transform="translate(167.443 35.331)" fill="#fff"/>
    <rect id="Rectangle_13477" data-name="Rectangle 13477" width="14.652" height="1.063" rx="0.532" transform="translate(173.413 36.694)" fill="#fff"/>
    <rect id="Rectangle_13478" data-name="Rectangle 13478" width="3.567" height="3.567" rx="1.784" transform="translate(167.443 43.706)" fill="#fff"/>
    <rect id="Rectangle_13479" data-name="Rectangle 13479" width="14.652" height="1.063" rx="0.532" transform="translate(173.413 45.068)" fill="#fff"/>
    <rect id="Rectangle_13480" data-name="Rectangle 13480" width="3.567" height="3.567" rx="1.784" transform="translate(167.443 52.027)" fill="#fff"/>
    <path id="Path_50167" data-name="Path 50167" d="M382.013,352.35l3.247,1.683-3.28,2.344Z" transform="translate(-185.528 -326.014)" fill="#e10600"/>
    <line id="Line_683" data-name="Line 683" y1="5.177" transform="translate(196.636 26.213)" fill="none" stroke="#e10600" stroke-linecap="round" stroke-miterlimit="10" stroke-width="1.4"/>
    <path id="Path_50168" data-name="Path 50168" d="M382.013,372.6l3.247,1.679-3.28,2.348Z" transform="translate(-185.528 -337.951)" fill="#e10600"/>
    <line id="Line_684" data-name="Line 684" y1="5.177" transform="translate(196.636 34.526)" fill="none" stroke="#e10600" stroke-linecap="round" stroke-miterlimit="10" stroke-width="1.4"/>
    <rect id="Rectangle_13481" data-name="Rectangle 13481" width="14.652" height="1.063" rx="0.532" transform="translate(173.413 53.279)" fill="#fff"/>
    <rect id="Rectangle_13484" data-name="Rectangle 13484" width="45.183" height="31.221" transform="translate(205.54 14.608)" fill="#fff"/>
    <rect id="Rectangle_13485" data-name="Rectangle 13485" width="45.244" height="2.324" transform="translate(205.52 47.585)" fill="#d5d9e0" opacity="0.54"/>
    <rect id="Rectangle_13486" data-name="Rectangle 13486" width="15.185" height="3.453" rx="1.726" transform="translate(205.68 52.15)" fill="#d5d9e0" opacity="0.54"/>
    <rect id="Rectangle_13495" data-name="Rectangle 13495" width="16.548" height="0.751" transform="translate(216.674 10.868)" fill="#d5d9e0" opacity="0.54"/>
    <rect id="Rectangle_13499" data-name="Rectangle 13499" width="16.548" height="0.751" transform="translate(234.088 10.868)" fill="#fff"/>
    <g id="Group_58080" data-name="Group 58080" transform="translate(205.426 14.599)" clip-path="url(#clip-path)">
      <path id="Path_50169" data-name="Path 50169" d="M489.005,393.294c-.587.653-8.621.5-9.352,0s0-4.984,0-4.984h9.352S489.6,392.641,489.005,393.294Z" transform="translate(-448.339 -361.81)" fill="#b9bfc7"/>
      <path id="Path_50170" data-name="Path 50170" d="M481.932,342.684l7.8.291s.755-1.137-1.018-3.432.821-2.57-2.607-4.742C484.946,334.354,481.44,333.874,481.932,342.684Z" transform="translate(-449.846 -330.15)" fill="#003865"/>
      <path id="Path_50171" data-name="Path 50171" d="M484.933,340.267a1.507,1.507,0,0,1,.148-1.113c.411-.714,1.256-1.9,2.356-1.342,1.535.78,2.053,1.4,1.934,1.962s-1.232,3.214-2.053,3.284C486.608,343.161,485.286,341.675,484.933,340.267Z" transform="translate(-451.615 -331.958)" fill="#e48c80"/>
      <path id="Path_50172" data-name="Path 50172" d="M488.81,350.207l1.691-.025-.353-2.492-1.08.07Z" transform="translate(-453.928 -337.866)" fill="#e48c80"/>
      <path id="Path_50173" data-name="Path 50173" d="M472.078,349.518a.821.821,0,0,0-.464.821,4.57,4.57,0,0,0,.5,1.893,6.051,6.051,0,0,1,.821,1.129l1.232-.349-.39-.558s.222-1.8-.029-2.053-.579.361-.579.361a7.04,7.04,0,0,0-.739-1.347A.792.792,0,0,0,472.078,349.518Z" transform="translate(-443.789 -338.881)" fill="#e48c80"/>
      <path id="Path_50174" data-name="Path 50174" d="M479.577,351.425s-.727-.283-2.529,4.347l-.764,2.241-1.034-4.577-2.09.895.9,6.868s1.232,2.874,3.182-.2c1.548-2.463,2.689-7.562,2.689-7.562Z" transform="translate(-444.702 -340.066)" fill="#8246af"/>
      <path id="Path_50175" data-name="Path 50175" d="M479.577,351.425s-.727-.283-2.529,4.347l-.764,2.241-1.034-4.577-2.09.895.9,6.868s1.232,2.874,3.182-.2c1.548-2.463,2.689-7.562,2.689-7.562Z" transform="translate(-444.702 -340.066)" fill="#8246af" opacity="0.11" style="mix-blend-mode: multiply;isolation: isolate"/>
      <path id="Path_50176" data-name="Path 50176" d="M483.98,351.151h-.743c-.365.053-.661,0-1.026.862-.669,1.593-.759,1.847-1.17,3.021a77.713,77.713,0,0,0-2.5,11.971c.07.353,6.655,3.411,9.853,1.092.435-.316.936-.5.821-1.03-.567-2.66-1.408-10.559-4.331-15.432a.9.9,0,0,0-.907-.484Z" transform="translate(-447.874 -339.903)" fill="#8246af"/>
      <path id="Path_50177" data-name="Path 50177" d="M487.55,337.429a7.912,7.912,0,0,0,3.715,2.135,6.883,6.883,0,0,1-.324-1.084,2.09,2.09,0,0,0-1.232-1.174,3.748,3.748,0,0,0-1.732-.16C487.8,337.162,487.542,337.261,487.55,337.429Z" transform="translate(-453.185 -331.628)" fill="#003865"/>
      <ellipse id="Ellipse_1553" data-name="Ellipse 1553" cx="0.271" cy="0.505" rx="0.271" ry="0.505" transform="translate(37.28 7.591)" fill="#e48c80"/>
      <path id="Path_50178" data-name="Path 50178" d="M507.012,389.6a5.66,5.66,0,0,0-.743-1.581,2.787,2.787,0,0,1-.513-1.186l-1.006.337.341.443s-.115,1.49.1,1.687.464-.316.464-.316,1.039.7,1.186.772S507.012,389.6,507.012,389.6Z" transform="translate(-463.324 -360.938)" fill="#e48c80"/>
      <path id="Path_50179" data-name="Path 50179" d="M493.17,351.84a15.5,15.5,0,0,1,4.191,7.89c1.252,5.361,2.377,6.848,2.377,6.848l-2.377.768Z" transform="translate(-456.498 -340.312)" fill="#8246af"/>
      <path id="Path_50180" data-name="Path 50180" d="M426.767,371.612a69.789,69.789,0,0,0-4.421,9.069,1.515,1.515,0,0,0,.718,1.93h0a1.519,1.519,0,0,0,2.053-.673l5.526-11.031c.447-1.055,1-2.393-.082-2.779h0C429.546,367.77,427.325,370.705,426.767,371.612Z" transform="translate(-414.681 -349.895)" fill="#119990"/>
      <path id="Path_50181" data-name="Path 50181" d="M444.68,362.836l2.139-.033-.443-3.313-1.367.094Z" transform="translate(-427.914 -344.822)" fill="#e48c80"/>
      <path id="Path_50182" data-name="Path 50182" d="M444.68,362.836l2.139-.033-.443-3.313-1.367.094Z" transform="translate(-427.914 -344.822)" fill="#e48c80" opacity="0.26" style="mix-blend-mode: multiply;isolation: isolate"/>
      <path id="Path_50183" data-name="Path 50183" d="M438.719,346.964a5.382,5.382,0,0,1,.234-1.642c.135-.6,1.182-3.4,3.473-2.771a3.391,3.391,0,0,1,2.611,3.576c-.267,1.683-.094,3.916-2.968,4.516C441.088,350.839,438.945,349.92,438.719,346.964Z" transform="translate(-424.4 -334.783)" fill="#003865"/>
      <path id="Path_50184" data-name="Path 50184" d="M439.731,350.707a2.073,2.073,0,0,1,.181-1.478c.5-.952,1.593-2.529,2.985-1.786,1.942,1.035,2.6,1.856,2.463,2.607s-1.572,4.278-2.59,4.389C441.857,354.537,440.215,352.558,439.731,350.707Z" transform="translate(-424.96 -337.607)" fill="#e48c80"/>
      <path id="Path_50185" data-name="Path 50185" d="M435.033,367.2h-1.289a1.766,1.766,0,0,0-1.782,1.145,43.768,43.768,0,0,0-2.024,4.019c-1.979,4.348-4.475,15.346-4.327,15.92.123.472,11.536,4.536,17.045,1.453.751-.411,1.622-.669,1.425-1.371-.973-3.535-2.434-14.04-7.5-20.526A1.737,1.737,0,0,0,435.033,367.2Z" transform="translate(-416.67 -349.363)" fill="#119990"/>
      <ellipse id="Ellipse_1554" data-name="Ellipse 1554" cx="0.669" cy="0.226" rx="0.669" ry="0.226" transform="translate(19.892 13.454) rotate(-73.99)" fill="#e48c80"/>
      <ellipse id="Ellipse_1555" data-name="Ellipse 1555" cx="0.226" cy="0.673" rx="0.226" ry="0.673" transform="matrix(0.991, -0.137, 0.137, 0.991, 14.403, 12.269)" fill="#e48c80"/>
      <path id="Path_50186" data-name="Path 50186" d="M442.644,340.13s-1.2-1.605-.521-2.254a.7.7,0,0,1,1.145.049s.07-.55.558-.349a.948.948,0,0,1,.579.6s.369-.452.673.025.279,2.993-1.178,2.192C442.635,339.707,442.644,340.13,442.644,340.13Z" transform="translate(-426.284 -331.878)" fill="#003865"/>
      <path id="Path_50187" data-name="Path 50187" d="M439.874,350.313a2.286,2.286,0,0,1-.053-1,1.769,1.769,0,0,1,.538-.821,7.456,7.456,0,0,0,.714-.681,1.8,1.8,0,0,1,.534-.538,1.166,1.166,0,0,1,.874.07,5.43,5.43,0,0,1,1.314.624,2.151,2.151,0,0,1,.874,1.166c.057.2.09.435.255.55a.129.129,0,0,0,.049,0c.029,0,.053-.029.074-.057a2.163,2.163,0,0,0,.259-.521,1.4,1.4,0,0,0-.115-.92,3.543,3.543,0,0,0-1.207-1.548,3.243,3.243,0,0,0-1.81-.6,1.807,1.807,0,0,0-.891.177,2.38,2.38,0,0,0-.673.579,8.649,8.649,0,0,0-.649.821,2.122,2.122,0,0,0-.369.792,2.5,2.5,0,0,0,0,.907C439.664,349.673,439.808,349.989,439.874,350.313Z" transform="translate(-424.889 -336.889)" fill="#003865"/>
      <rect id="Rectangle_13487" data-name="Rectangle 13487" width="3.157" height="1.56" transform="translate(16.183 17)" fill="#119990"/>
      <path id="Path_50188" data-name="Path 50188" d="M445.45,376.65h1.609a.271.271,0,0,1,.246.279l-.057,3.063a.308.308,0,0,1-.275.357l-1.716-.066a.3.3,0,0,1-.242-.369l.168-3.005a.3.3,0,0,1,.267-.259Z" transform="translate(-428.106 -354.937)" fill="#003865"/>
      <path id="Path_50189" data-name="Path 50189" d="M445.43,380.743a.911.911,0,0,1-.074,1.084c-.476.562-1.232,1.412-1.642,1.486a7,7,0,0,0-1.474.567l-.961-1.1.714-.287s.911-1.847,1.305-1.929c.472-.1.328.7.328.7a8.211,8.211,0,0,1,1.535-.821C445.225,380.448,445.328,380.583,445.43,380.743Z" transform="translate(-425.91 -357.171)" fill="#e48c80"/>
      <path id="Path_50190" data-name="Path 50190" d="M430.935,385.06l-7.266,5.21a1.523,1.523,0,0,0-.484,2.246h0a1.527,1.527,0,0,0,2.122.32l6.942-6.425Z" transform="translate(-415.064 -359.895)" fill="#119990"/>
      <path id="Path_50191" data-name="Path 50191" d="M446.31,379.451a.92.92,0,0,0-.308,1.043,5.174,5.174,0,0,0,1.03,1.971,6.949,6.949,0,0,1,1.186,1.047l1.281-.7-.567-.517s-.209-2.053-.55-2.266c-.411-.259-.55.546-.55.546a8.876,8.876,0,0,0-1.158-1.305C446.609,379.245,446.462,379.336,446.31,379.451Z" transform="translate(-428.661 -356.477)" fill="#e48c80"/>
      <path id="Path_50192" data-name="Path 50192" d="M446.31,379.451a.92.92,0,0,0-.308,1.043,5.174,5.174,0,0,0,1.03,1.971,6.949,6.949,0,0,1,1.186,1.047l1.281-.7-.567-.517s-.209-2.053-.55-2.266c-.411-.259-.55.546-.55.546a8.876,8.876,0,0,0-1.158-1.305C446.609,379.245,446.462,379.336,446.31,379.451Z" transform="translate(-428.661 -356.477)" fill="#e48c80" opacity="0.13" style="mix-blend-mode: multiply;isolation: isolate"/>
      <path id="Path_50193" data-name="Path 50193" d="M451.289,386.13l5.567,7.254a1.315,1.315,0,0,1-.751,1.958h0a1.629,1.629,0,0,1-2.09-.472l-4.4-7.911Z" transform="translate(-430.82 -360.525)" fill="#119990"/>
      <path id="Path_50194" data-name="Path 50194" d="M453.752,371.182c1.408,2.64,3.079,8.794,3.769,11.77a1.617,1.617,0,0,1-1.088,1.9h0A1.617,1.617,0,0,1,454.4,383.8l-3.912-12.529c-.291-1.182-.866-2.64.337-2.874h0C451.958,368.226,453.165,370.057,453.752,371.182Z" transform="translate(-431.107 -350.064)" fill="#119990"/>
      <path id="Path_50195" data-name="Path 50195" d="M430.935,385.06l-7.266,5.21a1.523,1.523,0,0,0-.484,2.246h0a1.527,1.527,0,0,0,2.122.32l6.942-6.425Z" transform="translate(-415.064 -359.895)" fill="#119990" opacity="0.13" style="mix-blend-mode: multiply;isolation: isolate"/>
      <path id="Path_50196" data-name="Path 50196" d="M435.036,368.75a43.851,43.851,0,0,0-3.21,6.408,11.9,11.9,0,0,0-.985,3.695" transform="translate(-419.756 -350.28)" fill="#119990" opacity="0.13" style="mix-blend-mode: multiply;isolation: isolate"/>
      <path id="Path_50197" data-name="Path 50197" d="M451.11,370.11a33.713,33.713,0,0,1,2.418,4.84,8.946,8.946,0,0,1,.743,2.8" transform="translate(-431.704 -351.082)" fill="#119990" opacity="0.13" style="mix-blend-mode: multiply;isolation: isolate"/>
      <path id="Path_50198" data-name="Path 50198" d="M451.289,386.13l5.567,7.254a1.315,1.315,0,0,1-.751,1.958h0a1.629,1.629,0,0,1-2.09-.472l-4.4-7.911Z" transform="translate(-430.82 -360.525)" fill="#119990" opacity="0.13" style="mix-blend-mode: multiply;isolation: isolate"/>
      <rect id="Rectangle_13488" data-name="Rectangle 13488" width="9.142" height="8.826" transform="translate(30.469 4.861)" fill="none" stroke="#e10600" stroke-miterlimit="10" stroke-width="0.44"/>
      <rect id="Rectangle_13489" data-name="Rectangle 13489" width="9.327" height="1.363" transform="translate(30.375 3.465)" fill="#e10600"/>
      <rect id="Rectangle_13490" data-name="Rectangle 13490" width="8.334" height="8.042" transform="translate(13.49 9.779)" fill="none" stroke="#e10600" stroke-miterlimit="10" stroke-width="0.41"/>
      <rect id="Rectangle_13491" data-name="Rectangle 13491" width="8.502" height="1.244" transform="translate(13.404 8.502)" fill="#e10600"/>
      <text id="PERSON" transform="translate(30.831 4.65)" fill="#fff" font-size="1" font-family="Mute-Bold, Mute" font-weight="700"><tspan x="0" y="0">PERSON</tspan></text>
      <text id="FACE" transform="translate(13.757 9.666)" fill="#fff" font-size="1" font-family="Mute-Bold, Mute" font-weight="700"><tspan x="0" y="0" letter-spacing="-0.06em">F</tspan><tspan y="0" letter-spacing="-0.05em">A</tspan><tspan y="0">CE</tspan></text>
      <rect id="Rectangle_13492" data-name="Rectangle 13492" width="5.23" height="5.304" transform="translate(15.309 21.364)" fill="none" stroke="#e10600" stroke-miterlimit="10" stroke-width="0.26"/>
      <rect id="Rectangle_13493" data-name="Rectangle 13493" width="5.337" height="1.071" transform="translate(15.255 20.272)" fill="#e10600"/>
      <text id="FACE-2" data-name="FACE" transform="translate(6.905 20.656)" fill="#fff" font-size="1" font-family="Mute-Regular, Mute"><tspan x="0" y="0" letter-spacing="-0.07em">F</tspan><tspan y="0" letter-spacing="-0.04em">A</tspan><tspan y="0">CE</tspan></text>
      <text id="MOBILE" transform="translate(15.604 21.251)" fill="#fff" font-size="1" font-family="Mute-Bold, Mute" font-weight="700"><tspan x="0" y="0" letter-spacing="-0.01em">M</tspan><tspan y="0">OBILE</tspan></text>
    </g>
    <rect id="Rectangle_13501" data-name="Rectangle 13501" width="18.309" height="70.855" transform="translate(275.216 173.456)" fill="none" stroke="#b9bfc7" stroke-miterlimit="10" stroke-width="0.6"/>
    <rect id="Rectangle_13504" data-name="Rectangle 13504" width="18.309" height="70.855" transform="translate(293.404 173.456)" fill="none" stroke="#b9bfc7" stroke-miterlimit="10" stroke-width="0.6"/>
    <rect id="Rectangle_13500" data-name="Rectangle 13500" width="10.604" height="43.175" transform="translate(315.057 163.399) rotate(90)" fill="#b9bfc7"/>
    <path id="Path_50213" data-name="Path 50213" d="M915.893,455.52a22.172,22.172,0,0,1,10.585-10.27c-.685,3.491-1.4,7.075-3.26,10.1a11.336,11.336,0,0,1-5.649,4.806c-.991.352-2.352.926-2.89-.13S915.43,456.446,915.893,455.52Z" transform="translate(-617.506 -326.489)" fill="#00ac41"/>
    <path id="Path_50207" data-name="Path 50207" d="M902.231,455.948A22.226,22.226,0,0,1,895.6,442.77c3.13,1.695,6.325,3.454,8.668,6.131a11.336,11.336,0,0,1,2.889,6.835c0,1.046.148,2.51-.991,2.723S902.972,456.661,902.231,455.948Z" transform="translate(-616.105 -326.306)" fill="#00ac41"/>
    <path id="Path_50214" data-name="Path 50214" d="M932.667,462.9a6.621,6.621,0,0,1,1.722,1.648,17.642,17.642,0,0,1,3.7,9.928c-1.852-2.454-4.862-3.778-7.539-5.353-1.787-1.056-5.77-3.51-5.131-6.121C926.045,460.595,931.185,461.975,932.667,462.9Z" transform="translate(-618.305 -327.702)" fill="#00ac41"/>
    <path id="Path_50201" data-name="Path 50201" d="M900.033,459.745a6.992,6.992,0,0,0-2.139-1.056,17.6,17.6,0,0,0-10.6-.13c2.954.926,5.2,3.288,7.594,5.27,1.6,1.324,5.26,4.241,7.5,2.778C904.479,465.191,901.4,460.829,900.033,459.745Z" transform="translate(-615.492 -327.417)" fill="#00ac41"/>
    <path id="Path_50208" data-name="Path 50208" d="M900.86,447.92c7.937,5.723,8.215,20.43,9.344,31.728" transform="translate(-616.494 -326.686)" fill="none" stroke="#275d38" stroke-linecap="round" stroke-miterlimit="10" stroke-width="0.4"/>
    <path id="Path_50211" data-name="Path 50211" d="M923.585,449.64c-12.41,8.937-11.743,19.578-15.855,30.154" transform="translate(-617.002 -326.813)" fill="none" stroke="#275d38" stroke-linecap="round" stroke-miterlimit="10" stroke-width="0.4"/>
    <path id="Path_50205" data-name="Path 50205" d="M893.19,459.3c9.706,1.315,15.1,7.261,16.281,22.921" transform="translate(-615.928 -327.527)" fill="none" stroke="#275d38" stroke-linecap="round" stroke-miterlimit="10" stroke-width="0.4"/>
    <path id="Path_50200" data-name="Path 50200" d="M892.7,468.72a6.807,6.807,0,0,0-2.352.417,17.6,17.6,0,0,0-8.631,6.168c2.945-.991,6.149-.426,9.261-.25,2.065.12,6.742.306,7.668-2.223C899.5,470.47,894.445,468.776,892.7,468.72Z" transform="translate(-615.08 -328.224)" fill="#00ac41"/>
    <path id="Path_50202" data-name="Path 50202" d="M886.88,472.658c12.039-3.482,17.7-5.908,23.153,6.89" transform="translate(-615.461 -328.309)" fill="none" stroke="#275d38" stroke-linecap="round" stroke-miterlimit="10" stroke-width="0.4"/>
    <path id="Path_50212" data-name="Path 50212" d="M934.834,470.618c-4.982-8.437-17.513-17.966-24.394,8.891" transform="translate(-617.202 -327.714)" fill="none" stroke="#275d38" stroke-linecap="round" stroke-miterlimit="10" stroke-width="0.4"/>
    <path id="Path_50206" data-name="Path 50206" d="M924.51,477.66a14.92,14.92,0,0,1-29.83,0" transform="translate(-616.038 -328.884)" fill="#d5d9e0"/>
    <rect id="Rectangle_13502" data-name="Rectangle 13502" width="31.886" height="1.204" transform="translate(277.614 148.452)" fill="#b9bfc7"/>
  </g>
</svg>
